<?xml version="1.0" standalone="no"?>
<!DOCTYPE svg PUBLIC "-//W3C//DTD SVG 20010904//EN"
 "http://www.w3.org/TR/2001/REC-SVG-20010904/DTD/svg10.dtd">
<svg version="1.0" xmlns="http://www.w3.org/2000/svg"
 width="400.000000pt" height="400.000000pt" viewBox="0 0 400.000000 400.000000"
 preserveAspectRatio="xMidYMid meet">
<metadata>
Created by potrace 1.14, written by Peter Selinger 2001-2017
</metadata>
<g transform="translate(0.000000,400.000000) scale(0.100000,-0.100000)"
fill="#000000" stroke="none">
<path d="M1840 3993 c-198 -22 -381 -61 -388 -82 -3 -8 0 -11 7 -7 7 5 9 1 4
-10 -5 -14 -3 -16 12 -10 18 7 18 6 0 -14 -18 -19 -18 -20 1 -21 10 0 -21 -11
-71 -23 -49 -13 -91 -22 -93 -21 -2 2 6 6 18 10 17 5 19 10 9 21 -9 11 -8 14
5 14 9 0 16 8 16 20 0 13 5 18 15 14 8 -4 15 -1 15 5 0 16 -12 14 -92 -18
-134 -54 -212 -93 -200 -100 8 -5 9 -23 3 -59 -12 -78 -85 -172 -134 -172 -17
0 -18 2 -6 17 15 18 16 18 -50 -3 -23 -7 -34 28 -16 52 11 15 10 54 -2 54 -22
0 -57 -46 -97 -128 l-49 -99 -93 -46 c-52 -26 -94 -43 -94 -38 0 4 10 19 23
33 21 24 32 48 22 48 -6 0 -171 -186 -197 -223 l-22 -31 74 41 c95 52 220 106
227 99 3 -3 -2 -25 -11 -49 -16 -43 -19 -45 -114 -82 -53 -21 -131 -55 -173
-76 -73 -36 -78 -41 -122 -116 -143 -243 -257 -624 -257 -858 0 -27 0 -69 0
-92 l-1 -43 225 0 c123 0 226 4 228 8 1 4 35 25 73 46 39 21 74 42 79 46 5 5
-29 28 -78 52 -60 29 -86 48 -86 60 0 28 25 22 121 -27 49 -25 94 -45 100 -45
6 0 55 25 108 55 90 51 158 71 149 44 -2 -7 -46 -36 -98 -66 -52 -30 -98 -58
-102 -62 -4 -4 34 -29 84 -56 50 -28 99 -57 107 -67 15 -15 24 -11 121 44 58
34 107 62 109 64 14 12 -17 12 -112 1 l-107 -13 0 28 c0 32 3 32 143 20 42 -4
77 -5 77 -2 0 3 -48 32 -107 64 l-106 59 6 89 c3 48 2 88 -3 88 -22 0 -400
-31 -436 -35 l-41 -6 15 89 16 90 85 11 c47 6 118 14 158 17 l72 7 6 41 c17
130 37 264 41 283 5 17 17 23 68 32 88 15 85 16 79 -30 l-6 -42 59 7 c32 4 78
9 102 13 l42 5 0 -38 c0 -22 -4 -44 -8 -50 -4 -7 -50 -17 -102 -23 -52 -7 -98
-17 -102 -24 -4 -7 -8 -27 -8 -45 0 -32 1 -33 33 -28 17 3 62 8 100 11 l67 7
0 -36 c0 -35 1 -36 39 -36 41 0 51 11 51 56 0 21 4 24 39 24 21 0 66 3 100 6
l61 7 0 -40 c0 -38 -10 -52 -176 -239 l-176 -199 -56 -5 -57 -5 68 -50 c97
-71 109 -68 93 20 -6 33 -5 35 19 35 27 0 29 -6 16 -62 -14 -59 11 -56 102 12
57 42 90 60 111 60 39 0 32 -6 -94 -80 l-105 -62 85 7 c47 4 103 10 125 13 22
4 88 6 148 4 l107 -3 0 -64 0 -65 -110 0 -110 0 0 -47 c0 -54 -15 -49 145 -52
l75 -1 0 -65 0 -65 -110 0 -110 0 0 -65 0 -65 115 0 115 0 0 66 0 65 33 -3
c32 -3 32 -3 35 -65 l3 -63 114 0 115 0 0 -40 0 -40 -115 0 -114 0 -3 -62 c-3
-66 -1 -64 -53 -59 -12 1 -15 15 -15 61 l0 60 -82 1 c-171 1 -417 8 -525 14
l-112 7 -6 29 c-6 27 -10 29 -54 29 -26 0 -89 3 -139 6 l-92 7 0 47 0 48 125
-6 125 -5 0 47 c0 34 -4 46 -15 47 -8 1 -19 3 -25 4 -5 1 -57 3 -115 4 l-105
1 0 55 0 54 95 3 95 3 -94 53 -95 52 -96 -52 -96 -53 56 -3 55 -3 0 -54 c0
-54 0 -55 -30 -55 -16 0 -51 4 -77 9 -26 5 -144 12 -262 15 l-214 6 7 -85 c15
-194 103 -524 149 -556 12 -8 53 -37 91 -64 46 -33 67 -43 63 -31 -14 37 -20
71 -10 61 8 -8 43 -99 43 -112 0 -1 -36 10 -79 26 l-80 29 11 -24 c8 -16 32
-32 82 -50 87 -34 86 -33 108 -91 23 -61 14 -69 -12 -11 l-20 45 -40 -7 c-23
-4 -43 -10 -46 -13 -3 -3 33 -37 80 -77 l86 -72 49 18 c41 14 57 16 87 6 20
-6 34 -9 31 -6 -19 19 -151 113 -155 110 -2 -2 1 -13 7 -24 12 -23 15 -49 4
-38 -8 8 -44 99 -40 102 8 7 227 -63 227 -73 0 -9 -10 -8 -41 2 -23 8 -45 12
-50 10 -5 -3 -21 2 -36 11 -35 22 -21 7 35 -35 24 -19 45 -31 48 -28 3 3 -4
11 -16 17 -12 6 -19 14 -16 17 4 5 72 -42 101 -70 15 -15 -17 3 -38 21 -9 8
-19 13 -22 10 -8 -7 56 -55 79 -59 14 -3 26 -25 42 -74 72 -215 72 -215 128
-240 28 -12 97 -37 154 -55 l102 -32 16 -57 c25 -92 66 -215 73 -223 11 -13
173 -69 166 -58 -10 16 7 12 19 -5 6 -8 49 -24 95 -36 82 -21 85 -21 120 -3
l36 18 -32 4 c-18 2 -33 7 -33 13 0 12 7 11 90 -2 66 -11 68 -13 74 -44 4 -21
14 -35 26 -38 16 -4 19 0 17 30 l-2 35 93 -1 c82 -2 92 0 93 16 2 26 -1 127
-4 129 -1 1 -54 4 -117 7 l-115 6 5 -64 5 -65 -27 0 c-25 0 -27 3 -33 58 -4
31 -8 61 -9 67 -1 5 -31 14 -67 20 -62 10 -64 11 -67 42 l-3 32 67 -6 67 -6
-6 39 c-4 21 -7 51 -7 65 0 25 -3 27 -64 34 -61 6 -64 8 -70 37 -3 17 -6 45
-6 62 0 71 -1 72 -123 88 l-112 15 -60 -44 c-32 -24 -66 -43 -74 -43 -9 0 16
22 54 50 77 55 71 54 209 36 l98 -13 -6 36 c-3 20 -6 41 -6 47 0 6 -47 16
-116 24 l-115 13 -96 82 c-64 56 -107 85 -129 90 -20 3 -34 12 -34 20 0 18
-12 19 155 -4 77 -11 181 -23 230 -27 50 -4 93 -12 97 -17 8 -13 174 -26 351
-26 97 -1 137 -4 137 -13 0 -8 -53 -10 -208 -5 -115 4 -223 10 -240 13 -29 6
-32 4 -32 -19 0 -14 7 -28 17 -31 10 -4 118 -10 241 -13 l224 -6 -5 -186 c-3
-102 -6 -187 -6 -188 -1 -1 -58 1 -128 4 l-126 6 6 -63 c4 -35 9 -65 11 -68
19 -19 423 -10 636 14 43 5 52 4 44 -6 -15 -15 -112 -27 -291 -36 -84 -4 -143
-11 -143 -17 0 -11 232 -3 350 12 36 5 66 7 68 6 2 -2 -3 -45 -10 -96 l-13
-94 -45 -7 c-42 -6 -408 -31 -457 -30 -13 0 -23 -1 -23 -3 0 -5 80 -55 87 -55
5 1 -5 12 -22 27 l-30 25 39 -22 c36 -21 45 -23 151 -16 115 6 339 31 385 42
52 12 52 11 30 53 l-20 40 37 10 c21 5 52 13 68 17 17 4 36 11 43 17 23 18 13
-14 -16 -52 -16 -20 -32 -42 -36 -48 -11 -19 185 52 309 112 117 56 260 146
363 227 58 47 74 74 34 62 -14 -5 -14 -3 2 10 23 19 40 21 30 4 -4 -7 -3 -8 5
-4 6 4 8 12 5 18 -5 7 -2 9 8 6 19 -8 41 6 44 26 1 9 -3 13 -13 9 -12 -5 -12
-7 -1 -15 10 -8 10 -9 -2 -5 -8 3 -39 -9 -69 -25 -29 -16 -55 -27 -58 -25 -2
3 31 25 74 48 95 54 98 55 88 38 -5 -8 -4 -10 0 -6 14 12 15 38 2 30 -7 -4 -6
1 2 10 19 23 31 21 26 -4 -3 -12 -1 -19 2 -15 10 10 11 56 1 50 -4 -3 -8 -1
-8 4 0 8 22 22 35 22 2 0 2 -10 0 -21 -3 -12 -1 -18 3 -15 4 4 7 17 7 29 0 11
5 22 12 24 8 3 11 -4 8 -18 -2 -12 -1 -19 3 -15 3 4 7 22 7 41 1 24 -2 32 -13
28 -8 -4 -2 17 18 57 17 34 30 64 27 66 -2 2 -41 -11 -87 -30 -70 -28 -86 -39
-101 -68 -19 -37 -49 -52 -190 -98 -80 -25 -243 -69 -246 -66 -1 1 2 18 7 37
9 32 13 35 82 52 40 10 137 39 215 64 130 42 143 49 152 75 10 27 9 29 -12 22
-82 -27 -212 -64 -223 -64 -9 0 -10 8 -3 32 5 17 13 34 18 37 5 3 66 22 135
41 131 35 133 36 128 90 -3 31 23 112 38 119 8 5 38 13 65 20 28 6 116 32 197
58 l147 46 35 96 c43 120 49 141 39 141 -4 0 -102 -18 -218 -41 -144 -29 -210
-38 -213 -30 -2 6 -13 11 -23 11 -13 0 -18 -4 -13 -12 4 -7 3 -8 -5 -4 -10 7
-369 -29 -408 -40 -7 -2 -13 -11 -13 -20 0 -13 7 -15 43 -9 23 4 46 11 52 16
5 5 14 9 20 9 5 0 3 -4 -4 -9 -16 -10 18 -7 159 15 154 24 190 26 190 10 0 -8
-7 -21 -15 -29 -8 -8 -11 -18 -7 -23 4 -5 0 -3 -10 4 -13 11 -33 10 -105 -2
-48 -9 -118 -18 -155 -22 -61 -6 -81 -15 -60 -27 4 -2 0 -1 -8 2 -22 7 -73 6
-92 -3 -13 -6 -18 -4 -18 9 0 15 -7 16 -42 11 -46 -6 -213 -21 -365 -32 l-93
-6 0 52 0 53 -46 -7 c-26 -3 -73 -6 -106 -6 -56 0 -58 -1 -48 -21 7 -11 10
-23 7 -25 -8 -9 -25 43 -17 56 5 8 47 15 116 20 60 5 204 16 319 24 116 9 239
17 273 18 36 1 65 6 67 12 2 6 6 24 10 40 l6 29 -27 -18 c-14 -9 -23 -12 -20
-6 4 6 2 11 -3 11 -6 0 -11 11 -11 25 0 21 5 25 31 25 29 0 31 2 27 30 -4 25
-1 31 18 36 31 8 42 -1 36 -31 -4 -22 -1 -25 26 -25 24 0 32 6 39 27 9 25 12
26 101 30 51 1 109 7 130 11 20 4 45 6 55 4 18 -4 24 -42 6 -42 -5 0 -7 -5 -3
-11 4 -8 -3 -9 -23 -5 -39 9 -196 -9 -201 -23 -2 -6 -8 -11 -13 -11 -6 0 -7 5
-4 10 4 6 -5 10 -19 10 -16 0 -26 -6 -26 -15 0 -10 10 -15 33 -15 32 0 177 16
230 25 21 3 27 1 27 -14 0 -17 6 -17 148 4 259 40 292 47 302 65 10 18 40 211
40 255 l0 28 -87 -6 c-49 -4 -152 -10 -230 -13 l-143 -7 0 62 0 61 233 0 232
0 2 35 2 35 -235 0 -234 0 0 45 0 46 168 -6 c92 -3 195 -8 230 -11 l62 -5 0
63 c0 115 -34 291 -91 469 l-31 96 -122 12 c-66 6 -143 13 -171 16 l-50 4 42
-12 c23 -7 45 -15 49 -19 10 -10 33 -118 26 -118 -19 0 -166 31 -171 36 -10
10 -28 123 -20 126 8 3 89 174 89 189 0 10 -139 54 -147 46 -3 -3 0 -20 6 -38
6 -18 9 -34 7 -36 -2 -2 -30 3 -62 11 -32 8 -59 14 -59 13 -1 -1 11 -69 26
-152 40 -211 44 -193 -48 -182 -43 5 -81 12 -84 15 -3 4 -13 65 -23 136 -9 71
-21 150 -27 176 l-10 46 -76 13 c-62 10 -77 10 -84 0 -4 -7 -4 -18 0 -24 4 -5
7 -17 6 -25 -1 -8 2 -23 7 -32 6 -12 3 -18 -10 -21 -16 -4 -16 -5 1 -6 16 -1
20 -26 17 -88 -1 -15 -62 -5 -83 14 -12 11 -34 24 -49 31 -16 6 -28 17 -28 23
0 7 -9 5 -25 -5 -13 -9 -33 -16 -44 -16 -25 0 -51 36 -51 70 0 21 -13 33 -75
69 -41 24 -75 48 -75 53 0 5 -4 7 -9 3 -5 -3 -12 -1 -15 4 -8 12 126 7 145 -5
7 -4 36 -7 64 -6 27 1 64 -3 80 -8 32 -10 95 -20 95 -14 0 2 -31 28 -69 59
-65 52 -71 55 -109 49 -29 -4 -46 -2 -66 11 -26 17 -27 17 -89 -24 -67 -43
-87 -50 -87 -27 0 18 -63 25 -302 33 l-198 6 0 -66 0 -66 -166 -3 c-91 -2
-167 -1 -168 2 -1 3 0 46 2 97 l4 91 71 6 c40 3 80 5 90 6 22 2 23 1 -92 140
-60 73 -101 115 -113 114 -109 -4 -106 -3 -112 -29 -7 -28 -4 -27 -166 -50
-63 -9 -144 -23 -180 -30 -61 -13 -63 -13 -43 3 79 63 153 127 153 133 0 4
-29 24 -65 45 -35 22 -65 41 -65 44 0 3 46 16 103 29 56 13 103 25 105 26 1 1
-9 28 -23 60 -14 31 -25 59 -23 60 6 6 151 36 154 32 2 -2 -19 -36 -47 -75
-28 -41 -45 -72 -37 -72 7 0 48 7 91 15 43 8 80 15 83 15 2 0 6 23 10 50 4 32
11 50 20 50 9 0 14 12 14 34 0 19 4 37 8 40 14 8 170 25 305 32 96 5 127 4
127 -5 0 -7 -4 -10 -8 -7 -4 2 -8 -7 -9 -22 l-2 -27 11 25 c17 38 18 80 2 80
-8 0 -14 7 -14 15 0 8 5 15 10 15 12 0 9 22 -4 31 -4 4 -4 9 0 11 5 3 18 -4
28 -15 16 -17 17 -19 3 -14 -16 6 -16 4 -2 -23 8 -16 12 -37 9 -47 -5 -17 -5
-17 6 -1 7 12 8 24 1 37 -8 14 -7 20 4 25 8 3 17 1 21 -5 4 -6 11 -6 20 2 11
9 14 9 14 -1 0 -8 3 -11 6 -7 3 3 3 11 -1 17 -5 8 -10 8 -20 0 -9 -8 -15 -8
-20 0 -3 5 -3 10 1 10 15 0 -28 39 -44 40 -66 5 -173 7 -202 3z m220 -23 c0
-5 -5 -10 -11 -10 -5 0 -7 5 -4 10 3 6 8 10 11 10 2 0 4 -4 4 -10z m-1023
-476 c-3 -3 -12 -4 -19 -1 -8 3 -5 6 6 6 11 1 17 -2 13 -5z m-137 -24 c0 -5
-2 -10 -4 -10 -3 0 -8 5 -11 10 -3 6 -1 10 4 10 6 0 11 -4 11 -10z m-80 -36
c0 -8 -19 -13 -24 -6 -3 5 1 9 9 9 8 0 15 -2 15 -3z m34 -2 c3 -5 -1 -9 -9 -9
-8 0 -12 4 -9 9 3 4 7 8 9 8 2 0 6 -4 9 -8z m35 -38 c-12 -13 -19 -30 -16 -38
4 -10 1 -16 -8 -16 -23 0 -18 28 9 55 18 18 21 27 12 36 -8 9 -5 9 7 0 17 -13
17 -15 -4 -37z m737 22 c1 -7 -5 -13 -12 -13 -15 0 -19 19 -7 30 8 8 16 1 19
-17z m-697 -32 c-6 -7 -15 -11 -21 -8 -5 3 -4 12 3 20 6 7 15 11 21 8 5 -3 4
-12 -3 -20z m717 -11 c-10 -10 -19 5 -10 18 6 11 8 11 12 0 2 -7 1 -15 -2 -18z
m34 -23 c0 -5 -4 -10 -9 -10 -6 0 -13 5 -16 10 -3 6 1 10 9 10 9 0 16 -4 16
-10z m30 -34 c0 -7 -6 -13 -14 -13 -11 0 -13 9 -7 35 2 9 21 -11 21 -22z
m-634 -13 c-4 -9 -10 -37 -13 -61 -6 -41 -5 -43 18 -38 72 16 352 56 392 56
18 0 19 -5 13 -50 -4 -32 -3 -50 4 -50 5 0 10 -6 10 -14 0 -10 -22 -16 -77
-21 -43 -3 -141 -15 -218 -26 -183 -25 -176 -26 -168 11 7 37 8 37 -143 5 -64
-14 -118 -24 -120 -23 -1 2 6 40 18 85 l20 81 111 30 c134 36 162 39 153 15z
m655 -26 c-13 -13 -26 -3 -16 12 3 6 11 8 17 5 6 -4 6 -10 -1 -17z m28 -33
c-14 -18 -24 -11 -15 11 3 9 11 13 16 10 8 -5 7 -11 -1 -21z m32 -37 c-13 -13
-26 -3 -16 12 3 6 11 8 17 5 6 -4 6 -10 -1 -17z m-192 -131 c-4 -5 -5 -14 -3
-20 2 -6 -6 -11 -21 -11 -15 0 -23 5 -21 11 2 6 -1 17 -7 23 -8 8 -7 11 6 11
9 0 17 7 17 15 0 12 3 12 19 -2 10 -10 15 -22 10 -27z m566 4 c3 -5 1 -10 -4
-10 -6 0 -11 5 -11 10 0 6 2 10 4 10 3 0 8 -4 11 -10z m-1724 -135 c-42 -130
-85 -310 -103 -435 l-12 -78 -73 -11 c-41 -6 -78 -11 -82 -11 -23 0 65 334
137 520 l38 95 64 26 c36 14 66 23 68 20 1 -4 -15 -61 -37 -126z m1661 95 c19
0 20 -2 6 -17 -9 -10 -14 -22 -12 -28 2 -5 -7 -10 -21 -10 -16 0 -25 6 -25 16
0 8 -5 20 -12 27 -9 9 -8 12 4 12 9 0 19 8 23 18 8 16 8 16 12 0 3 -10 14 -18
25 -18z m98 0 c0 -5 -4 -10 -10 -10 -5 0 -10 5 -10 10 0 6 5 10 10 10 6 0 10
-4 10 -10z m0 -60 c0 -5 -4 -10 -10 -10 -5 0 -10 5 -10 10 0 6 5 10 10 10 6 0
10 -4 10 -10z m-1093 -44 c-6 -12 -19 -23 -29 -23 -11 -1 -16 3 -12 9 4 6 0
14 -7 19 -11 7 -10 9 4 9 9 0 17 4 17 9 0 5 8 7 19 4 15 -4 17 -8 8 -27z
m1063 4 c0 -5 -4 -10 -10 -10 -5 0 -10 5 -10 10 0 6 5 10 10 10 6 0 10 -4 10
-10z m-690 -60 l0 -50 -39 0 c-21 0 -66 -3 -100 -6 l-61 -7 0 51 0 51 38 4
c20 2 65 4 100 5 l62 2 0 -50z m1070 30 c0 -5 -5 -10 -11 -10 -5 0 -7 5 -4 10
3 6 8 10 11 10 2 0 4 -4 4 -10z m90 0 c0 -5 -2 -10 -4 -10 -3 0 -8 5 -11 10
-3 6 -1 10 4 10 6 0 11 -4 11 -10z m-780 -255 l0 -154 63 -3 62 -3 3 -82 3
-83 -136 0 -136 0 -114 78 c-63 42 -114 80 -115 85 0 4 22 7 49 7 46 0 49 1
55 31 3 17 6 85 6 150 l0 118 33 4 c17 2 76 5 130 5 l97 2 0 -155z m-1082 125
c12 0 13 -3 4 -12 -7 -7 -12 -20 -12 -31 0 -10 -5 -15 -10 -12 -6 4 -17 2 -24
-5 -11 -9 -14 -5 -12 17 1 27 28 67 34 51 2 -4 11 -8 20 -8z m2012 -30 c198
-15 207 -17 213 -46 5 -29 -2 -29 -186 -14 -152 13 -155 14 -196 49 l-34 28
29 -3 c16 -2 94 -8 174 -14z m-735 -30 c36 -24 49 -25 41 -5 -3 8 -1 15 4 15
6 0 10 -11 10 -25 0 -24 -3 -25 -62 -25 -65 0 -76 10 -14 12 22 1 32 4 24 9
-6 4 -16 5 -20 3 -4 -3 -16 0 -25 6 -16 10 -16 11 2 6 20 -6 20 -6 1 9 -30 23
3 19 39 -5z m96 -24 c6 -6 14 -5 22 3 10 10 8 11 -8 5 -25 -9 -18 -1 14 16 15
7 21 8 17 1 -5 -7 -1 -9 8 -5 9 3 14 9 12 13 -3 4 4 7 15 7 27 0 23 -14 -8
-29 l-27 -12 30 -6 c20 -5 11 -7 -33 -8 l-63 -1 1 33 c1 21 3 25 6 12 3 -11 9
-24 14 -29z m447 -6 c12 0 13 -3 5 -11 -6 -6 -9 -19 -5 -28 5 -13 3 -14 -10
-4 -8 7 -18 10 -21 6 -4 -3 -7 1 -7 10 0 8 -6 18 -12 20 -8 3 -6 6 5 6 9 1 17
7 18 14 0 10 2 10 6 0 2 -7 12 -13 21 -13z m-208 0 c0 -5 -4 -10 -10 -10 -5 0
-10 5 -10 10 0 6 5 10 10 10 6 0 10 -4 10 -10z m-40 -10 c0 -5 -2 -10 -4 -10
-3 0 -8 5 -11 10 -3 6 -1 10 4 10 6 0 11 -4 11 -10z m80 0 c0 -5 -4 -10 -10
-10 -5 0 -10 5 -10 10 0 6 5 10 10 10 6 0 10 -4 10 -10z m-110 -26 c0 -8 -4
-12 -10 -9 -5 3 -10 10 -10 16 0 5 5 9 10 9 6 0 10 -7 10 -16z m140 -5 c0 -6
-4 -7 -10 -4 -5 3 -10 11 -10 16 0 6 5 7 10 4 6 -3 10 -11 10 -16z m-351 -31
c-1 -24 -3 -27 -6 -10 -5 25 -9 26 -42 8 -14 -8 -32 -11 -40 -8 -9 3 -12 1 -7
-6 5 -8 1 -10 -10 -5 -14 5 -14 8 7 24 l23 17 -25 5 c-13 2 4 5 39 6 l62 1 -1
-32z m139 27 c-3 -3 -22 -6 -42 -7 -20 -1 -35 -2 -34 -3 2 -1 14 -8 27 -15 18
-9 22 -9 16 0 -6 9 -2 9 15 0 17 -9 19 -15 11 -23 -9 -9 -21 -6 -51 11 -48 27
-48 27 -53 0 -3 -17 -5 -14 -6 10 l-1 32 62 0 c34 0 59 -2 56 -5z m690 -22
l72 -6 0 -30 0 -30 -53 7 c-30 3 -120 9 -200 12 -81 4 -147 10 -147 13 0 3 15
16 33 29 34 25 55 25 295 5z m251 -53 c274 -114 305 -128 309 -138 3 -10 -400
-116 -419 -110 -7 2 33 33 89 69 l101 64 -132 93 c-72 50 -127 92 -123 92 5 0
83 -31 175 -70z m-884 50 c-3 -5 -10 -10 -16 -10 -5 0 -9 5 -9 10 0 6 7 10 16
10 8 0 12 -4 9 -10z m171 -17 c-10 -10 -19 5 -10 18 6 11 8 11 12 0 2 -7 1
-15 -2 -18z m-176 -22 c0 -6 -4 -13 -10 -16 -5 -3 -10 1 -10 9 0 9 5 16 10 16
6 0 10 -4 10 -9z m185 -11 c3 -5 1 -10 -4 -10 -6 0 -11 5 -11 10 0 6 2 10 4
10 3 0 8 -4 11 -10z m-175 -40 c0 -5 -4 -10 -10 -10 -5 0 -10 5 -10 10 0 6 5
10 10 10 6 0 10 -4 10 -10z m170 2 c0 -13 -12 -22 -22 -16 -10 6 -1 24 13 24
5 0 9 -4 9 -8z m330 -17 c69 -3 143 -8 166 -11 l41 -5 6 -97 c4 -53 10 -121
13 -149 l7 -53 -82 0 -81 0 0 -190 0 -190 -90 0 -89 0 6 98 c3 53 2 141 -2
195 l-7 97 -84 0 c-49 0 -84 -4 -84 -10 0 -6 -57 -10 -150 -10 l-150 0 0 -100
0 -100 60 0 60 0 0 -190 0 -190 -90 0 -90 0 0 138 c0 77 -3 207 -7 290 l-6
152 -84 0 -83 0 0 35 0 35 85 0 85 0 0 95 0 95 30 0 30 0 0 -89 c0 -50 5 -93
10 -96 6 -4 76 -9 156 -12 l147 -6 -8 143 -7 143 84 -7 c45 -3 139 -8 208 -11z
m-470 -20 c0 -8 -4 -15 -10 -15 -5 0 -10 7 -10 15 0 8 5 15 10 15 6 0 10 -7
10 -15z m106 -12 c-10 -10 -19 5 -10 18 6 11 8 11 12 0 2 -7 1 -15 -2 -18z
m1252 -147 c95 -88 170 -162 167 -164 -5 -6 -55 37 -224 194 -77 71 -140 133
-140 137 -2 15 26 -9 197 -167z m-1318 144 c0 -5 -7 -10 -16 -10 -8 0 -12 5
-9 10 3 6 10 10 16 10 5 0 9 -4 9 -10z m35 0 c3 -5 2 -10 -4 -10 -5 0 -13 5
-16 10 -3 6 -2 10 4 10 5 0 13 -4 16 -10z m1394 -149 c94 -85 169 -157 166
-159 -2 -3 -21 10 -42 28 -83 72 -313 284 -313 287 0 12 33 -15 189 -156z
m-2239 79 c0 -5 -6 -10 -14 -10 -22 0 -46 -40 -46 -75 0 -17 7 -41 16 -53 18
-27 46 -30 37 -4 -5 13 -3 14 7 5 18 -16 3 -33 -29 -33 -77 0 -93 126 -22 165
31 17 51 19 51 5z m10 -30 c0 -5 -4 -10 -10 -10 -5 0 -10 5 -10 10 0 6 5 10
10 10 6 0 10 -4 10 -10z m0 -41 c0 -5 -4 -9 -10 -9 -5 0 -10 7 -10 16 0 8 5
12 10 9 6 -3 10 -10 10 -16z m-1315 -39 c21 -23 14 -61 -15 -90 -24 -24 -57
-26 -82 -3 -25 23 -23 59 7 88 29 30 66 32 90 5z m1315 -1 c0 -5 -4 -9 -10 -9
-5 0 -10 7 -10 16 0 8 5 12 10 9 6 -3 10 -10 10 -16z m1727 -123 c-27 -21 -25
-75 3 -98 17 -14 19 -18 6 -18 -26 0 -56 37 -56 69 0 33 23 61 48 61 15 -1 15
-2 -1 -14z m296 -3 c-7 -2 -13 -13 -13 -23 0 -10 6 -21 13 -23 7 -4 6 -6 -4
-6 -22 -1 -43 25 -35 44 3 8 16 15 28 14 13 0 17 -3 11 -6z m-1605 -85 l3 -68
-116 0 -115 0 0 63 c0 35 3 67 7 71 4 3 54 5 112 4 l106 -3 3 -67z m-256 -38
l-4 -60 61 0 c54 0 61 -2 61 -20 0 -18 -7 -20 -61 -20 l-61 0 4 -60 c3 -54 1
-60 -17 -60 -18 0 -20 6 -17 60 l4 60 -61 0 c-57 0 -61 2 -61 23 0 21 3 22 61
19 l61 -4 -4 61 c-3 56 -1 61 17 61 18 0 20 -6 17 -60z m-1282 6 c0 -2 -7 -6
-15 -10 -8 -3 -15 -1 -15 4 0 6 7 10 15 10 8 0 15 -2 15 -4z m1530 -206 l0
-71 -107 3 -108 3 -3 68 -3 67 111 0 110 0 0 -70z m-1788 -95 c3 -29 1 -35
-14 -35 -14 0 -18 8 -18 35 0 23 5 35 14 35 8 0 15 -14 18 -35z m385 11 c1 -1
5 -21 9 -44 l7 -42 -56 0 c-75 0 -102 29 -81 85 6 13 16 15 63 9 31 -3 57 -7
58 -8z m2938 -28 c-4 -24 -9 -45 -11 -47 -3 -3 -383 -30 -441 -31 -33 0 -33 0
-33 50 l0 50 63 1 c34 1 121 5 192 8 72 4 154 8 183 9 l54 2 -7 -42z m-757
-50 l-3 -43 -117 -3 -118 -3 0 46 0 45 121 0 120 0 -3 -42z m-2554 -40 c3 -29
9 -70 12 -90 5 -30 3 -38 -8 -38 -17 0 -23 21 -34 118 -5 51 -4 62 8 62 11 0
17 -15 22 -52z m490 -83 c280 -23 271 -21 274 -50 2 -23 -2 -25 -42 -25 -42 0
-317 24 -408 36 -42 5 -48 9 -48 30 0 29 -17 28 224 9z m528 -50 c-5 -27 -32
-24 -50 6 -10 16 -9 19 3 19 8 0 15 5 15 10 0 6 7 6 18 -1 12 -8 17 -20 14
-34z m978 -12 c0 -20 -16 -8 -23 17 -4 17 -3 19 9 9 8 -6 14 -18 14 -26z m110
8 c-11 -21 -9 -21 95 -21 58 0 105 -4 105 -8 0 -10 -198 -24 -211 -16 -13 8
-11 48 3 62 17 17 22 7 8 -17z m-53 -48 c-2 -16 -4 -5 -4 22 0 28 2 40 4 28 2
-13 2 -35 0 -50z m-20 -5 c-2 -13 -4 -3 -4 22 0 25 2 35 4 23 2 -13 2 -33 0
-45z m-2007 23 c0 -11 3 -26 6 -35 4 -10 1 -16 -9 -16 -8 0 -18 7 -21 16 -11
28 -6 54 9 54 8 0 15 -9 15 -19z m924 -21 c18 0 14 -38 -5 -43 -9 -2 -21 4
-28 14 -7 12 -7 19 -1 19 5 0 10 8 11 18 0 10 3 12 6 5 2 -7 10 -13 17 -13z
m1046 10 c0 -6 -43 -10 -110 -10 -67 0 -110 4 -110 10 0 6 43 10 110 10 67 0
110 -4 110 -10z m-909 -30 c5 0 4 -9 -3 -19 -8 -13 -16 -17 -24 -11 -6 6 -13
8 -15 6 -2 -2 -5 7 -5 20 -1 13 2 22 6 19 5 -3 12 0 17 7 5 10 8 8 11 -4 2
-10 8 -18 13 -18z m-586 -20 c99 -11 195 -20 213 -20 30 0 54 -22 39 -37 -6
-5 -177 12 -379 38 -76 10 -88 14 -88 31 0 14 5 18 18 14 9 -3 98 -14 197 -26z
m915 16 c0 -3 -4 -8 -10 -11 -5 -3 -10 -1 -10 4 0 6 5 11 10 11 6 0 10 -2 10
-4z m110 0 c0 -11 -19 -15 -25 -6 -3 5 1 10 9 10 9 0 16 -2 16 -4z m110 -6 c0
-5 -4 -10 -10 -10 -5 0 -10 5 -10 10 0 6 5 10 10 10 6 0 10 -4 10 -10z m-1466
-218 c-3 -5 -138 29 -147 38 -7 7 5 105 20 154 4 13 21 -8 67 -85 34 -57 61
-105 60 -107z m1881 199 c3 -5 1 -12 -5 -16 -5 -3 -10 1 -10 9 0 18 6 21 15 7z
m-325 -12 c0 -5 -37 -30 -82 -56 -72 -42 -89 -48 -139 -48 -31 0 -55 3 -53 7
9 15 -14 16 -32 2 -10 -9 -14 -13 -7 -10 6 4 14 2 18 -4 3 -5 -1 -10 -9 -10
-8 0 -18 5 -21 10 -4 6 -11 8 -16 4 -5 -3 -6 -10 -3 -16 4 -7 2 -8 -4 -4 -7 4
-12 1 -12 -8 0 -21 -18 -30 -35 -16 -19 16 -20 60 -1 60 8 0 18 -4 21 -10 3
-5 11 -10 16 -10 6 0 4 7 -5 15 -8 8 -21 15 -28 15 -10 0 -9 3 2 10 19 12 33
13 26 1 -3 -5 1 -14 8 -20 10 -8 16 -9 21 -1 3 6 10 8 15 5 5 -3 12 0 16 7 4
7 4 10 -1 6 -4 -4 -14 0 -22 10 -8 9 -12 12 -9 5 4 -6 2 -15 -4 -18 -6 -4 -10
-3 -9 2 4 23 -2 32 -18 26 -10 -4 -14 -2 -10 4 4 6 -8 20 -26 32 l-32 21 218
-1 c124 0 217 -4 217 -10z m-1334 -34 c207 -31 357 -45 369 -35 8 7 44 7 106
0 118 -12 129 -12 129 0 0 6 -8 10 -17 11 -11 0 -13 3 -5 6 6 2 12 10 12 17 0
22 38 13 43 -11 2 -12 0 -20 -4 -17 -5 3 -9 0 -9 -5 0 -13 -7 -12 130 -20 99
-6 105 -7 108 -28 3 -21 -1 -23 -36 -23 -54 0 -424 29 -439 35 -18 6 -16 -30
1 -48 14 -14 106 -24 391 -45 l90 -7 5 -65 5 -65 115 -6 c63 -4 177 -7 253 -8
96 -1 137 -4 137 -13 0 -8 -59 -9 -232 -4 -128 4 -244 10 -257 13 -23 6 -23 4
-17 -32 l7 -38 -98 6 c-54 4 -150 14 -213 22 -63 8 -128 16 -145 17 -16 1 -34
5 -40 8 -5 4 -30 10 -55 14 -25 3 -107 18 -183 32 -121 23 -143 25 -182 14
-50 -14 -51 -25 -3 -34 18 -3 43 -8 56 -11 13 -2 53 -25 89 -51 71 -51 71 -51
-7 -79 -34 -12 -40 -12 -40 0 0 8 10 21 23 30 l22 16 -30 27 c-23 21 -63 36
-157 61 l-127 33 -16 55 c-17 57 -13 86 5 39 5 -15 10 -30 10 -34 0 -4 4 -13
8 -20 7 -9 21 -8 67 8 32 11 65 20 74 19 9 0 -12 -10 -46 -22 -34 -12 -65 -25
-69 -29 -15 -16 37 -7 103 17 38 13 72 20 78 16 9 -8 245 -54 347 -67 43 -6
46 -5 42 13 -5 17 -20 22 -97 32 -51 6 -155 24 -231 39 -138 27 -140 27 -148
57 -17 63 -35 175 -29 175 4 0 52 -7 107 -15z m951 -1 c-3 -3 -12 -4 -19 -1
-8 3 -5 6 6 6 11 1 17 -2 13 -5z m359 -3 c-4 -5 0 -12 6 -15 7 -3 4 -4 -7 -3
-12 1 -19 -3 -17 -11 1 -8 -2 -11 -8 -7 -5 3 -15 3 -21 -1 -7 -4 -1 -12 17
-20 24 -12 25 -13 4 -7 -14 4 -33 7 -42 7 -20 0 -25 16 -5 16 6 0 26 11 42 25
33 26 39 30 31 16z m331 -58 c-2 -16 -4 -5 -4 22 0 28 2 40 4 28 2 -13 2 -35
0 -50z m20 5 c-2 -13 -4 -5 -4 17 -1 22 1 32 4 23 2 -10 2 -28 0 -40z m-57 14
c0 -10 -7 -27 -16 -38 -15 -18 -15 -18 -5 3 6 12 11 24 11 27 0 3 -47 6 -105
6 -63 0 -105 4 -105 10 0 6 43 10 110 10 99 0 110 -2 110 -18z m-395 -32 c3
-6 -1 -7 -9 -4 -18 7 -21 14 -7 14 6 0 13 -4 16 -10z m55 -10 c0 -5 -5 -10
-11 -10 -5 0 -7 5 -4 10 3 6 8 10 11 10 2 0 4 -4 4 -10z m-130 -10 c0 -5 -4
-10 -10 -10 -5 0 -10 5 -10 10 0 6 5 10 10 10 6 0 10 -4 10 -10z m80 -16 c0
-2 -9 0 -19 6 -13 7 -22 7 -26 0 -3 -5 1 -10 9 -10 9 0 16 -5 16 -12 0 -6 3
-8 7 -5 3 4 12 -1 20 -11 8 -9 11 -10 7 -2 -5 8 12 -2 37 -23 26 -20 51 -37
58 -37 6 0 11 -4 11 -10 0 -12 -173 -13 -324 -3 -110 7 -111 9 -11 60 l49 25
-23 19 c-13 11 -18 19 -13 19 6 0 14 -4 17 -10 3 -5 14 -10 23 -10 15 0 15 2
2 10 -11 8 -7 9 15 4 17 -4 36 -11 42 -16 9 -7 21 -4 40 10 20 15 33 18 45 11
10 -5 18 -12 18 -15z m1697 -44 c-19 -34 -20 -42 -9 -61 12 -18 11 -20 -5 -17
-27 5 -29 58 -3 91 32 40 41 33 17 -13z m-1877 26 c0 -2 -7 -7 -16 -10 -8 -3
-12 -2 -9 4 6 10 25 14 25 6z m-55 -16 c3 -6 -1 -7 -9 -4 -18 7 -21 14 -7 14
6 0 13 -4 16 -10z m-15 -15 c0 -2 -6 -8 -13 -14 -10 -8 -14 -7 -14 2 0 8 6 14
14 14 7 0 13 -1 13 -2z m335 -6 c11 -17 -1 -21 -15 -4 -8 9 -8 15 -2 15 6 0
14 -5 17 -11z m430 -126 c-4 -76 -8 -138 -9 -139 0 -1 -38 -4 -83 -7 l-83 -6
0 138 c0 76 3 141 7 144 3 4 44 7 91 7 l84 0 -7 -137z m905 133 c0 -3 -4 -8
-10 -11 -5 -3 -10 -1 -10 4 0 6 5 11 10 11 6 0 10 -2 10 -4z m50 -16 c0 -5 -4
-10 -10 -10 -5 0 -10 5 -10 10 0 6 5 10 10 10 6 0 10 -4 10 -10z m-110 -15 c0
-8 -4 -15 -9 -15 -13 0 -22 16 -14 24 11 11 23 6 23 -9z m140 -25 c0 -5 -4
-10 -9 -10 -6 0 -13 5 -16 10 -3 6 1 10 9 10 9 0 16 -4 16 -10z m-333 -42 c-3
-18 -9 -54 -13 -80 -7 -52 -7 -52 -112 -64 -62 -7 -92 -22 -92 -49 0 -36 -85
-105 -130 -105 -32 0 -80 53 -80 88 0 33 4 34 149 48 l73 7 -6 36 c-8 50 -49
85 -93 78 -49 -8 -89 -41 -109 -91 -15 -35 -25 -46 -48 -50 -16 -4 -31 -4 -34
-2 -2 3 -1 42 3 89 l7 84 152 12 c83 7 178 16 211 20 33 5 75 9 94 10 32 1 33
0 28 -31z m139 5 c-10 -10 -19 5 -10 18 6 11 8 11 12 0 2 -7 1 -15 -2 -18z
m-1276 -3 c0 -5 -2 -10 -4 -10 -3 0 -8 5 -11 10 -3 6 -1 10 4 10 6 0 11 -4 11
-10z m1470 -10 c0 -5 -4 -10 -10 -10 -5 0 -10 5 -10 10 0 6 5 10 10 10 6 0 10
-4 10 -10z m-215 -40 c-3 -5 -11 -10 -16 -10 -6 0 -7 5 -4 10 3 6 11 10 16 10
6 0 7 -4 4 -10z m190 -20 c-3 -5 -11 -10 -16 -10 -6 0 -7 5 -4 10 3 6 11 10
16 10 6 0 7 -4 4 -10z m-1631 -31 c45 -35 32 -109 -19 -109 -54 0 -84 71 -46
109 26 26 32 26 65 0z m1445 -15 c-15 -18 -22 -13 -13 10 3 9 10 13 16 10 5
-3 4 -12 -3 -20z m127 -21 c-10 -10 -19 5 -10 18 6 11 8 11 12 0 2 -7 1 -15
-2 -18z m-96 -8 c-7 -9 -15 -13 -17 -11 -7 7 7 26 19 26 6 0 6 -6 -2 -15z m55
-5 c-3 -5 -11 -10 -16 -10 -6 0 -7 5 -4 10 3 6 11 10 16 10 6 0 7 -4 4 -10z
m-2046 -188 l45 -39 -63 -42 c-34 -24 -65 -40 -68 -37 -4 3 -4 7 -2 9 2 2 25
19 52 37 26 18 47 36 47 40 0 3 -29 31 -64 61 -36 30 -65 58 -65 62 -1 9 43
-24 118 -91z m1031 43 l25 -14 -32 -1 c-22 0 -38 -8 -52 -26 -25 -32 -27 -62
-5 -93 13 -18 23 -22 52 -19 l35 4 -23 -18 c-32 -26 -57 -22 -91 11 -46 46
-35 125 22 157 30 17 38 17 69 -1z m873 -8 c4 3 7 1 7 -5 0 -7 -4 -12 -10 -12
-5 0 -10 -9 -10 -21 0 -14 -5 -19 -14 -16 -7 3 -19 0 -26 -6 -10 -9 -12 -8 -7
4 3 9 0 22 -6 28 -8 8 -6 11 6 11 10 0 20 7 23 15 5 11 10 13 19 5 6 -5 15 -7
18 -3z m-790 -51 c24 9 13 -43 -11 -54 -19 -9 -23 -8 -18 3 2 7 0 16 -7 19 -9
5 -9 7 1 12 6 3 12 13 13 22 0 10 3 12 5 5 3 -7 11 -10 17 -7z m-1400 -39
c-10 -61 58 -149 116 -151 17 -1 31 -4 31 -7 0 -16 -31 -30 -50 -24 -52 16
-130 114 -130 161 0 15 26 54 36 54 1 0 0 -15 -3 -33z m2059 7 c-3 -14 -14
-29 -27 -34 -25 -10 -294 -55 -389 -66 -53 -6 -59 -5 -53 10 4 10 7 24 7 31 0
9 16 16 43 19 141 19 327 48 357 55 61 15 68 14 62 -15z m542 -29 c-10 -8 -23
-14 -29 -14 -5 0 -1 6 9 14 11 8 24 15 30 15 5 0 1 -7 -10 -15z m-2491 -26 c3
-10 1 -19 -5 -19 -15 0 -35 24 -31 37 6 17 30 5 36 -18z m1912 -121 c-4 -13
-10 -26 -14 -30 -6 -6 -203 -48 -316 -68 -33 -5 -96 -12 -140 -14 -44 -2 -120
-7 -169 -12 -74 -6 -88 -5 -84 7 3 10 37 16 129 22 108 7 154 17 138 30 -2 2
-35 1 -74 -4 -99 -11 -195 -11 -195 1 0 6 10 10 23 10 12 0 74 5 137 10 64 6
116 7 118 2 3 -11 160 11 307 42 147 31 148 31 140 4z m-441 -8 c-10 -10 -273
-35 -281 -26 -15 15 17 26 80 27 40 1 101 4 137 8 70 7 79 6 64 -9z m-1133 -5
c25 -4 51 -10 56 -13 6 -4 23 -75 38 -157 14 -83 28 -158 31 -169 5 -16 2 -17
-28 -11 -79 17 -102 29 -110 60 -8 30 -68 295 -68 303 0 2 8 1 18 -2 9 -3 38
-8 63 -11z m1794 -36 c17 -26 -44 -127 -67 -112 -7 3 -8 1 -4 -5 4 -6 -5 -19
-19 -28 -23 -15 -28 -15 -41 -2 -23 22 -8 64 41 114 40 43 77 56 90 33z m185
-16 c0 -6 -103 -63 -108 -59 -2 3 3 8 12 12 9 3 14 10 11 14 -8 13 34 38 61
36 13 0 24 -2 24 -3z m-506 -78 c-33 -25 -74 -58 -93 -73 -19 -15 -46 -35 -60
-44 -32 -21 -81 -63 -62 -52 9 4 12 3 7 -4 -4 -6 -14 -8 -23 -5 -12 5 -14 3
-8 -8 4 -8 5 -11 0 -7 -4 4 -24 -5 -44 -21 -45 -35 -79 -53 -92 -49 -15 5 392
307 415 308 12 0 -2 -16 -40 -45z m-354 2 c0 -7 -10 -13 -22 -14 -13 -1 -81
-7 -152 -13 -157 -12 -286 -13 -286 -1 0 5 62 12 138 16 75 4 166 11 202 15
102 12 120 11 120 -3z m140 -21 c0 -2 -6 -9 -13 -15 -10 -8 -14 -7 -14 4 0 8
6 15 14 15 7 0 13 -2 13 -4z m-137 -27 c-21 -20 -453 -42 -460 -23 -2 7 50 13
164 18 92 5 193 11 223 15 58 7 87 4 73 -10z m41 6 c-6 -16 -24 -21 -24 -7 0
11 11 22 21 22 5 0 6 -7 3 -15z m35 -41 c-14 -18 -24 -11 -15 11 3 9 11 13 16
10 8 -5 7 -11 -1 -21z m44 -29 c-5 -13 -23 -22 -23 -11 0 15 14 35 21 31 4 -3
6 -12 2 -20z m-97 -22 c-10 -10 -19 5 -10 18 6 11 8 11 12 0 2 -7 1 -15 -2
-18z m-1151 -83 c3 -5 2 -10 -4 -10 -5 0 -13 5 -16 10 -3 6 -2 10 4 10 5 0 13
-4 16 -10z m150 -40 c3 -5 1 -10 -4 -10 -6 0 -11 5 -11 10 0 6 2 10 4 10 3 0
8 -4 11 -10z m-105 -10 c0 -5 -4 -10 -10 -10 -5 0 -10 5 -10 10 0 6 5 10 10
10 6 0 10 -4 10 -10z m78 -35 c-3 -3 -9 2 -12 12 -6 14 -5 15 5 6 7 -7 10 -15
7 -18z"/>
<path d="M1722 2762 c-7 -12 -16 -20 -20 -18 -4 3 -6 -12 -4 -32 2 -28 1 -33
-7 -21 -7 10 -19 15 -35 12 -19 -4 -23 -11 -22 -35 1 -18 11 -38 24 -48 12
-10 22 -23 22 -30 0 -7 8 -9 19 -5 16 5 20 0 24 -27 l4 -33 1 34 c2 30 5 33
27 29 14 -3 25 -1 25 5 0 6 10 21 22 34 30 32 30 70 1 76 -12 2 -27 -1 -34 -7
-9 -8 -10 -3 -6 22 5 24 3 32 -8 32 -7 0 -15 8 -17 18 -3 15 -6 14 -16 -6z"/>
<path d="M2055 2630 c-3 -6 1 -7 9 -4 18 7 21 14 7 14 -6 0 -13 -4 -16 -10z"/>
<path d="M253 1335 c-10 -59 -10 -59 9 -35 l19 23 31 -29 31 -29 -24 41 c-56
95 -54 94 -66 29z"/>
<path d="M1555 1260 c3 -5 8 -10 11 -10 2 0 4 5 4 10 0 6 -5 10 -11 10 -5 0
-7 -4 -4 -10z"/>
<path d="M608 1329 c-24 -13 -23 -76 0 -112 26 -39 53 -56 87 -56 l30 0 -31
13 c-84 37 -102 146 -24 146 20 0 22 2 10 10 -19 12 -50 12 -72 -1z"/>
<path d="M753 1245 c-8 -9 -6 -15 8 -23 26 -17 35 -15 35 7 0 23 -27 33 -43
16z"/>
<path d="M1210 1180 c0 -5 5 -10 10 -10 6 0 10 -4 10 -9 0 -4 -16 -6 -36 -4
-32 3 -35 2 -29 -14 5 -10 9 -31 9 -47 1 -20 8 -31 23 -37 12 -4 26 -15 31
-25 9 -16 10 -16 21 3 7 15 17 20 31 16 16 -4 19 -2 13 13 -4 11 -8 13 -11 6
-2 -7 -8 -10 -13 -7 -5 3 -3 15 4 27 9 16 9 22 0 25 -7 3 -13 9 -13 15 0 6 7
8 15 4 8 -3 15 -1 15 4 0 6 -11 10 -24 10 -16 0 -27 7 -31 20 -7 21 -25 28
-25 10z m-20 -40 c0 -5 -2 -10 -4 -10 -3 0 -8 5 -11 10 -3 6 -1 10 4 10 6 0
11 -4 11 -10z m66 -24 c3 -14 3 -29 0 -35 -8 -12 -76 -12 -76 1 0 4 5 8 11 8
5 0 8 4 5 9 -11 17 6 41 30 41 17 0 25 -7 30 -24z m-16 -66 c0 -5 -2 -10 -4
-10 -3 0 -8 5 -11 10 -3 6 -1 10 4 10 6 0 11 -4 11 -10z"/>
<path d="M1631 998 c0 -10 -8 -18 -17 -18 -13 0 -14 -3 -4 -15 7 -8 9 -22 6
-31 -5 -14 -4 -15 8 -5 8 7 19 10 23 8 5 -3 13 6 20 19 10 21 9 24 -7 24 -10
0 -21 8 -23 18 -4 16 -5 16 -6 0z"/>
<path d="M3028 463 c-49 -53 -58 -93 -21 -93 11 0 13 3 5 13 -7 8 -6 21 2 42
15 34 32 51 61 58 19 5 19 5 -1 6 -11 0 -32 -11 -46 -26z"/>
<path d="M3040 435 c-10 -12 -10 -15 3 -15 8 0 17 7 21 15 3 8 2 15 -3 15 -5
0 -14 -7 -21 -15z"/>
<path d="M3220 460 c-9 -6 -10 -10 -3 -10 6 0 15 5 18 10 8 12 4 12 -15 0z"/>
<path d="M2080 3981 c0 -12 39 -21 45 -11 3 5 21 6 40 3 23 -4 35 -2 35 6 0 6
-17 11 -40 11 -25 0 -40 -5 -40 -12 0 -8 -3 -9 -8 -3 -9 13 -32 17 -32 6z"/>
<path d="M2210 3964 c-19 -7 -27 -13 -18 -13 9 -1 22 -3 30 -4 7 -2 9 -1 3 1
-5 3 6 11 25 18 20 7 26 12 15 12 -11 0 -36 -6 -55 -14z"/>
<path d="M2295 3960 c-30 -8 -30 -8 8 -9 20 0 37 4 37 9 0 11 -2 11 -45 0z"/>
<path d="M2380 3950 c0 -13 11 -13 30 0 12 8 11 10 -7 10 -13 0 -23 -4 -23
-10z"/>
<path d="M2400 3931 c0 -5 15 -12 33 -16 58 -12 67 -16 66 -33 0 -10 -3 -12
-6 -5 -3 9 -11 8 -31 -5 -17 -11 -23 -12 -18 -3 7 10 3 12 -15 6 -33 -10 -34
-12 -18 -32 12 -15 12 -16 -1 -8 -13 8 -13 6 -2 -8 8 -9 11 -25 7 -38 -5 -14
-4 -19 4 -15 6 4 11 3 11 -2 0 -19 -50 -22 -147 -11 -117 14 -436 17 -548 5
-66 -7 -76 -10 -57 -19 29 -13 28 -23 -5 -40 l-27 -14 29 -15 29 -16 -34 -17
-34 -17 29 -15 28 -15 -26 -16 c-34 -21 -34 -28 0 -39 l26 -9 -33 -21 -34 -22
27 -12 c14 -6 25 -15 23 -18 -2 -3 39 -6 92 -6 l96 0 -3 -132 -3 -133 56 0
c56 0 56 0 56 30 l0 30 113 0 c61 -1 170 -5 242 -10 71 -5 132 -7 134 -5 8 9
-10 53 -24 59 -9 3 -84 8 -168 11 -83 3 -185 8 -225 11 l-73 6 3 71 3 72 155
0 c85 -1 190 -4 233 -9 66 -7 77 -10 77 -27 0 -11 7 -19 17 -19 9 0 51 -26 93
-58 68 -53 78 -57 103 -48 22 8 35 6 62 -8 l34 -19 49 32 c27 17 59 31 71 31
21 0 22 3 16 40 -8 46 -7 47 73 24 160 -44 307 -98 328 -121 12 -13 64 -41
115 -62 130 -53 149 -63 149 -74 0 -6 3 -8 6 -4 4 3 31 -7 60 -23 51 -27 53
-27 42 -7 -33 63 -132 179 -169 197 l-40 21 21 -40 20 -41 -32 16 c-21 10 -43
34 -60 64 -19 34 -40 56 -68 70 -26 13 -47 34 -61 62 l-21 41 36 -21 c20 -12
36 -18 36 -14 -2 21 -63 87 -122 132 -73 54 -80 58 -71 34 11 -29 -105 37
-118 67 -6 16 -22 35 -35 44 -23 15 -24 15 -12 -10 6 -14 9 -27 6 -30 -2 -2
-40 10 -84 29 -69 29 -80 37 -88 65 -10 36 -41 61 -80 65 -13 1 -31 7 -38 13
-19 15 -57 25 -106 29 -24 1 -53 10 -63 20 -10 9 -19 12 -19 6 0 -7 -10 -8
-32 -1 -41 11 -58 11 -58 0z m180 -51 c25 -8 25 -8 2 -9 -13 -1 -20 -5 -17
-11 4 -6 10 -8 14 -6 4 3 13 -4 20 -16 15 -24 0 -18 -37 16 -20 17 -24 18 -32
6 -8 -12 -10 -10 -10 8 0 24 15 27 60 12z m96 -67 c-7 -7 -26 7 -26 19 0 6 6
6 15 -2 9 -7 13 -15 11 -17z m84 -3 c0 -5 -2 -10 -4 -10 -3 0 -8 5 -11 10 -3
6 -1 10 4 10 6 0 11 -4 11 -10z m-215 -12 c2 -2 5 -11 7 -22 3 -21 -22 -30
-37 -12 -19 21 -14 45 8 40 11 -2 21 -5 22 -6z m76 -77 l56 -12 26 -127 c15
-70 30 -147 33 -171 l7 -44 -34 6 c-19 4 -52 9 -75 13 l-40 6 -23 146 c-12 81
-25 160 -28 176 -5 23 -3 28 8 24 8 -3 40 -11 70 -17z m129 -17 c0 -8 -4 -12
-10 -9 -5 3 -10 10 -10 16 0 5 5 9 10 9 6 0 10 -7 10 -16z m262 -94 c10 -19
16 -35 15 -37 -7 -6 -182 63 -184 72 -1 6 -5 22 -8 37 l-7 27 84 -32 c70 -28
86 -38 100 -67z m168 -77 c8 -15 16 -31 18 -35 6 -13 -122 51 -129 64 -4 7
-10 23 -14 36 -7 23 -6 23 52 -7 37 -18 64 -40 73 -58z"/>
<path d="M2592 3582 c10 -20 18 -42 18 -49 0 -6 6 -16 13 -20 8 -4 19 -17 25
-28 11 -19 11 -19 12 3 0 13 4 21 9 18 5 -3 11 14 13 39 2 32 -1 45 -10 45 -7
0 -11 -4 -8 -8 3 -5 1 -22 -4 -38 l-8 -29 -3 30 c-1 17 -3 35 -3 42 -1 15 -26
41 -26 28 0 -6 4 -27 9 -47 11 -46 -3 -41 -19 6 -6 19 -17 36 -24 39 -9 4 -7
-6 6 -31z"/>
<path d="M2403 3895 c0 -10 6 -14 14 -10 8 3 17 5 19 5 3 0 2 5 -1 10 -10 16
-32 12 -32 -5z"/>
<path d="M2129 3821 c-20 -4 -44 -6 -53 -5 -9 1 -16 -2 -16 -7 0 -14 61 -10
95 6 33 15 28 16 -26 6z"/>
<path d="M2320 3810 c-13 -8 -13 -10 2 -10 9 0 20 5 23 10 8 13 -5 13 -25 0z"/>
<path d="M2243 3793 c9 -2 23 -2 30 0 6 3 -1 5 -18 5 -16 0 -22 -2 -12 -5z"/>
<path d="M937 3691 c-21 -14 -25 -20 -14 -24 8 -3 25 5 38 19 27 29 15 31 -24
5z"/>
<path d="M649 3473 c-13 -16 -12 -17 4 -4 9 7 17 15 17 17 0 8 -8 3 -21 -13z"/>
<path d="M3370 3447 c0 -2 15 -16 33 -33 l32 -29 -29 33 c-28 30 -36 37 -36
29z"/>
<path d="M2893 3298 c3 -13 11 -57 18 -98 6 -41 16 -79 20 -84 5 -5 81 -24
171 -43 90 -18 187 -40 217 -49 29 -8 55 -13 58 -10 3 2 -8 45 -23 95 l-28 91
-109 36 c-98 31 -298 84 -321 84 -4 0 -6 -10 -3 -22z"/>
<path d="M2680 3266 c0 -9 5 -16 10 -16 6 0 10 4 10 9 0 6 -4 13 -10 16 -5 3
-10 -1 -10 -9z"/>
<path d="M2650 3201 c0 -5 5 -13 10 -16 6 -3 10 -2 10 4 0 5 -4 13 -10 16 -5
3 -10 2 -10 -4z"/>
<path d="M2720 3191 c0 -6 5 -13 10 -16 6 -3 10 1 10 9 0 9 -4 16 -10 16 -5 0
-10 -4 -10 -9z"/>
<path d="M2925 3010 c3 -5 8 -10 11 -10 2 0 4 5 4 10 0 6 -5 10 -11 10 -5 0
-7 -4 -4 -10z"/>
<path d="M3581 2855 c-46 -35 -91 -71 -100 -80 -15 -16 -13 -17 24 -12 22 3
103 11 180 18 77 7 142 14 144 15 2 2 -2 17 -9 35 -10 22 -27 37 -59 51 -93
41 -89 41 -180 -27z"/>
<path d="M3524 2715 c3 -9 0 -15 -9 -15 -21 0 -18 -17 5 -30 11 -6 20 -17 20
-25 0 -8 7 -15 16 -15 10 0 14 6 10 15 -3 9 0 15 9 15 21 0 19 8 -14 41 -32
32 -46 37 -37 14z"/>
<path d="M1230 2098 c16 -16 205 -128 214 -128 3 0 6 26 6 59 l0 59 -52 5
c-174 19 -184 20 -168 5z"/>
<path d="M1071 2025 l-73 -55 80 0 80 0 10 47 c18 81 4 82 -97 8z"/>
<path d="M1198 2075 c-3 -3 -2 -25 3 -48 4 -23 8 -45 9 -49 0 -5 37 -8 81 -8
l82 0 -74 55 c-71 52 -89 61 -101 50z"/>
<path d="M195 1960 c-17 -19 -17 -20 1 -21 11 0 14 -3 6 -6 -17 -7 4 -33 27
-33 40 0 56 51 22 70 -27 14 -35 13 -56 -10z m60 -29 c3 -5 2 -12 -3 -15 -5
-3 -9 1 -9 9 0 17 3 19 12 6z"/>
<path d="M1134 1882 c-52 -41 -61 -130 -19 -181 65 -77 168 -50 190 49 22 99
-98 191 -171 132z"/>
<path d="M3800 1490 c0 -6 -8 -10 -17 -11 -11 0 -13 -3 -5 -6 6 -2 10 -8 8
-12 -3 -4 1 -8 8 -8 7 0 18 8 24 18 9 13 8 19 -3 23 -8 3 -15 1 -15 -4z"/>
<path d="M3163 1473 c-30 -4 -33 -7 -33 -39 0 -41 2 -41 177 -19 171 21 183
24 183 40 0 15 -4 15 -92 -1 -18 -3 -67 -7 -108 -10 -41 -3 -80 -10 -86 -15
-8 -6 -14 -4 -18 6 -3 9 -2 13 4 10 6 -3 10 3 10 14 0 12 -1 20 -2 19 -2 0
-18 -3 -35 -5z"/>
<path d="M3633 1455 c-12 -13 -5 -29 13 -32 16 -3 25 34 10 40 -6 3 -16 -1
-23 -8z"/>
<path d="M168 1211 c8 -4 13 -11 13 -15 -3 -22 1 -27 15 -22 10 4 25 -1 36
-10 10 -10 20 -15 23 -12 6 5 -79 68 -92 68 -4 0 -2 -4 5 -9z"/>
<path d="M3662 1027 c-74 -32 -74 -32 -102 -99 l-29 -67 82 40 c74 36 85 45
115 95 17 30 32 57 32 59 0 10 -28 2 -98 -28z"/>
<path d="M270 1041 c-14 -4 -20 -9 -15 -13 15 -8 86 3 79 13 -6 10 -28 10 -64
0z"/>
<path d="M1116 912 c5 -4 41 -36 79 -69 68 -59 73 -62 149 -72 42 -6 96 -11
118 -11 40 0 40 0 34 31 -3 17 -6 44 -6 60 0 25 -4 28 -42 33 -308 37 -348 41
-332 28z"/>
<path d="M3448 907 c-10 -8 -13 -18 -9 -26 6 -10 12 -9 25 4 9 9 14 21 11 26
-7 11 -6 11 -27 -4z"/>
<path d="M355 870 c9 -17 20 -28 26 -24 6 4 2 15 -12 30 -30 32 -33 30 -14 -6z"/>
<path d="M3585 840 c-10 -11 -16 -23 -13 -26 7 -6 38 24 38 37 0 13 -5 11 -25
-11z"/>
<path d="M562 821 c-24 -9 -43 -20 -43 -24 1 -6 114 -107 163 -145 12 -10 6
14 -20 84 -21 54 -42 99 -47 100 -6 2 -29 -5 -53 -15z"/>
<path d="M438 782 c-15 -6 -7 -19 50 -80 63 -70 68 -73 94 -63 15 6 36 7 45 4
14 -5 10 -10 -20 -23 l-36 -16 42 -41 42 -41 36 14 c46 19 42 45 -12 79 -20
14 -76 58 -124 100 -47 41 -89 75 -93 74 -4 0 -15 -4 -24 -7z"/>
<path d="M1597 745 c-10 -21 -16 -40 -13 -42 7 -7 38 56 34 68 -2 6 -11 -6
-21 -26z"/>
<path d="M3555 770 c-3 -6 1 -7 9 -4 18 7 21 14 7 14 -6 0 -13 -4 -16 -10z"/>
<path d="M1864 751 c3 -17 2 -21 -6 -13 -6 6 -16 8 -24 5 -10 -4 -8 -13 8 -44
20 -39 44 -48 42 -15 -2 13 1 14 12 5 8 -7 14 -7 14 -1 0 15 -26 33 -35 24 -4
-4 -5 2 -1 13 3 11 1 27 -5 35 -8 12 -10 10 -5 -9z m1 -51 c9 -16 13 -30 11
-30 -3 0 -12 14 -21 30 -9 17 -13 30 -11 30 3 0 12 -13 21 -30z"/>
<path d="M1615 730 c-16 -31 -15 -60 3 -60 10 0 45 70 38 77 -2 3 -14 -12 -25
-34 -11 -21 -20 -34 -21 -30 0 4 7 22 16 38 8 17 13 33 10 36 -2 3 -12 -9 -21
-27z"/>
<path d="M3520 750 c-8 -5 -15 -20 -16 -34 0 -14 3 -23 8 -20 4 3 6 9 3 14 -3
4 0 10 7 12 6 2 12 12 14 21 3 20 3 19 -16 7z"/>
<path d="M1690 690 c-31 -31 -27 -92 8 -129 37 -40 63 -46 94 -21 32 25 42 71
24 115 -24 56 -87 74 -126 35z"/>
<path d="M1608 567 c-16 -10 -16 -14 4 -47 12 -19 23 -36 24 -38 1 -2 11 2 22
9 l21 13 -21 38 c-24 41 -25 42 -50 25z m38 -30 c4 -4 2 -7 -5 -7 -7 0 -9 -4
-6 -10 3 -5 4 -10 1 -10 -3 0 -10 9 -16 19 -7 15 -7 19 5 17 8 -1 18 -5 21 -9z"/>
<path d="M1857 556 c-3 -8 -1 -16 5 -18 8 -3 7 -11 -1 -27 -15 -28 3 -57 19
-31 6 9 5 17 -2 21 -9 6 -8 12 1 23 14 16 9 46 -8 46 -5 0 -11 -6 -14 -14z"/>
<path d="M1896 534 c-4 -9 -4 -19 -1 -22 2 -3 7 3 11 12 4 9 4 19 1 22 -2 3
-7 -3 -11 -12z"/>
<path d="M707 516 l-27 -12 27 -25 c16 -14 45 -39 67 -55 l39 -28 -33 59 c-42
76 -40 75 -73 61z"/>
<path d="M1836 514 c-4 -9 -4 -19 -1 -22 2 -3 7 3 11 12 4 9 4 19 1 22 -2 3
-7 -3 -11 -12z"/>
<path d="M904 466 c3 -13 9 -31 12 -40 5 -14 2 -15 -21 -6 -15 6 -30 9 -32 7
-11 -12 26 -61 59 -78 22 -11 43 -31 48 -44 5 -13 23 -31 39 -40 l31 -15 -10
26 c-10 26 -7 27 47 7 10 -4 10 4 0 33 -10 27 -22 40 -43 47 -41 14 -49 22
-64 68 -9 27 -22 44 -38 50 -33 13 -35 12 -28 -15z"/>
<path d="M2175 241 c-3 -6 -1 -11 5 -11 6 0 8 -4 5 -10 -4 -6 7 -10 27 -9 21
1 25 3 13 6 -11 3 -25 11 -32 19 -7 10 -13 12 -18 5z"/>
<path d="M2140 211 c-24 -7 -24 -7 -3 -13 14 -4 24 -1 27 8 3 8 4 14 3 13 -1
-1 -13 -4 -27 -8z"/>
<path d="M2204 184 c8 -20 -19 -48 -38 -41 -14 6 -16 3 -11 -16 11 -34 22 -41
30 -18 3 12 15 21 26 21 10 0 19 4 19 10 0 5 -8 6 -17 3 -15 -5 -16 -4 -7 8
19 25 23 46 8 46 -8 0 -13 -6 -10 -13z"/>
<path d="M2134 170 c0 -13 4 -16 10 -10 7 7 7 13 0 20 -6 6 -10 3 -10 -10z"/>
<path d="M2120 129 c0 -5 5 -7 10 -4 6 3 10 8 10 11 0 2 -4 4 -10 4 -5 0 -10
-5 -10 -11z"/>
<path d="M1667 62 c-38 -23 -34 -36 6 -16 40 21 40 21 30 27 -5 3 -21 -2 -36
-11z"/>
<path d="M1696 49 c-15 -9 -16 -13 -5 -20 23 -15 39 -10 39 11 0 23 -7 24 -34
9z"/>
<path d="M1800 30 c0 -16 7 -20 33 -20 l32 0 -25 20 c-32 25 -40 25 -40 0z"/>
</g>
</svg>
